# xmcd
#
# Track frame offsets: 
#        150
#        41673
#        64582
#        85773
#        100862
#        135648
#        151419
#        172397
#        194582
#        209390
#        229874
#        240902
#        265088
#        289483
#        308198
#        327978
#        343666
#
# Disc length: 4783 seconds
#
# Revision: 2
# Processed by: cddbd v1.5.2PL0 Copyright (c) Steve Scherf et al.
# Submitted via: ExactAudioCopy v1.3
#
DISCID=fc12ad11
DTITLE=Various Artist - Akella Presents - vol.38 - Blues Rock  CD1
DYEAR=2014
DGENRE=Blues-Rock
TTITLE0=Guitar Pete - Creepin'
TTITLE1=Paul Warren - High Price to Pay
TTITLE2=Paul Camilleri - Livin' On The Fast Lane
TTITLE3=Hot and Nasty - Rise Of Anger
TTITLE4=JP Blues - Another Time, Another Place
TTITLE5=Doug Varty - The Itch
TTITLE6=Wille and the Bandits - Jack the Lad
TTITLE7=Mammothor - Worst Night
TTITLE8=Albany Down - Travelling Blues
TTITLE9=Sean Chambers - Just For The Thrill
TTITLE10=Erick Serna and The Killing Floor - The Grip
TTITLE11=High Heels - High Heels
TTITLE12=Stevie Cochran - Between The Lines
TTITLE13=Jo Hell - Don't You See
TTITLE14=Gemini 6 - Brown Song
TTITLE15=Jim Suhler - Between Midnight And Day
TTITLE16=Firebird - Lose Your Delusions
EXTD=
EXTT0=
EXTT1=
EXTT2=
EXTT3=
EXTT4=
EXTT5=
EXTT6=
EXTT7=
EXTT8=
EXTT9=
EXTT10=
EXTT11=
EXTT12=
EXTT13=
EXTT14=
EXTT15=
EXTT16=
PLAYORDER=
